<svg id="Layer_1" data-name="Layer 1" xmlns="http://www.w3.org/2000/svg" xmlns:xlink="http://www.w3.org/1999/xlink" viewBox="0 0 31.4 31.4"><defs><style>.cls-1{fill-rule:evenodd;fill:url(#linear-gradient);}</style><linearGradient id="linear-gradient" x1="10.94" y1="35.87" x2="22.06" y2="-11.42" gradientUnits="userSpaceOnUse"><stop offset="0" stop-color="#d4ccae"/><stop offset="0.48" stop-color="#fff2c2"/><stop offset="1" stop-color="#fffaea"/></linearGradient></defs><path class="cls-1" d="M15.7,31.4A15.7,15.7,0,1,1,31.4,15.7,15.73,15.73,0,0,1,15.7,31.4ZM14.8,2.53A13.3,13.3,0,0,0,2.43,14.83l3.17.92-3.17.92a13.29,13.29,0,0,0,12.34,12.4l.93-3.22.93,3.22A13.21,13.21,0,0,0,29,16.67l-3.17-.92L29,14.84A13.43,13.43,0,0,0,16.6,2.53l-.9,3.12ZM17,18.3,15.7,23.66,14.45,18.3a2.23,2.23,0,0,0-1.3-1.3L7.79,15.75l5.36-1.25a2.23,2.23,0,0,0,1.3-1.3L15.7,7.84,17,13.2a2.23,2.23,0,0,0,1.3,1.3l5.36,1.25L18.25,17A2.23,2.23,0,0,0,17,18.3Z"/></svg>