<svg id="Layer_1" data-name="Layer 1" xmlns="http://www.w3.org/2000/svg" viewBox="0 0 112.74 112.72"><defs><style>.cls-1{fill:#fff;}</style></defs><path class="cls-1" d="M111.53,56.37a55.17,55.17,0,1,0-55.16,55.14A55.16,55.16,0,0,0,111.53,56.37Z"/><path class="cls-1" d="M56.37,112.72a56.36,56.36,0,1,1,56.37-56.35A56.43,56.43,0,0,1,56.37,112.72Zm0-110.31a54,54,0,1,0,54,54A54,54,0,0,0,56.37,2.41Z"/><path class="cls-1" d="M56.35,72A15.67,15.67,0,1,1,72,56.36,15.68,15.68,0,0,1,56.35,72Zm0-28.93A13.26,13.26,0,1,0,69.61,56.36,13.28,13.28,0,0,0,56.35,43.1Z"/><path class="cls-1" d="M29.35,61.19H26.94V38.63a15.31,15.31,0,0,1,30.62,0V41.9H55.15V38.63a12.9,12.9,0,0,0-25.8,0Z"/><path class="cls-1" d="M73.54,85.78H51.46V83.37H73.54a12.91,12.91,0,0,0,0-25.81H70.82v-2.4h2.72a15.31,15.31,0,0,1,0,30.62Z"/><rect class="cls-1" x="55.15" y="70.82" width="2.41" height="13.2"/><rect class="cls-1" x="28.14" y="55.21" width="14.11" height="2.41"/><path class="cls-1" d="M59.08,55.19h0a2.45,2.45,0,0,1-1.53-1.42h0l-1.2-5.28-1.16,5.14h0a2.44,2.44,0,0,1-1.41,1.53h0l-5.28,1.19,5.14,1.16h0a2.4,2.4,0,0,1,1.52,1.41h0l1.19,5.28,1.16-5.14h0a2.37,2.37,0,0,1,1.41-1.52h0l5.28-1.19Z"/><polyline class="cls-1" points="41.59 57.48 41.59 57.48 46.88 56.29 41.74 55.13 41.73 55.12"/><polyline class="cls-1" points="55.04 41.59 55.05 41.59 56.24 46.88 57.4 41.73 57.41 41.73"/><polyline class="cls-1" points="70.94 55.04 70.94 55.05 65.65 56.24 70.79 57.4 70.8 57.41"/><polyline class="cls-1" points="57.48 70.94 57.48 70.94 56.29 65.65 55.13 70.79 55.12 70.8"/><path class="cls-1" d="M29.36,53.64a1.56,1.56,0,0,0,1.55,1.56v1.16h-2.1V53.64Z"/><path class="cls-1" d="M29.36,59.18a1.55,1.55,0,0,1,1.55-1.55V56.46h-2.1v2.72Z"/><path class="cls-1" d="M59.12,83.38a1.56,1.56,0,0,1-1.55-1.56H56.4v2.11h2.72Z"/><path class="cls-1" d="M53.58,83.38a1.56,1.56,0,0,0,1.56-1.56H56.3v2.11H53.58Z"/></svg>